<svg xmlns="http://www.w3.org/2000/svg" width="1129" height="163" viewBox="0 0 1129 163">
  <g fill="#333334">
    <path d="M346.2,119.1 L281.1,119.1 L262.8,162.2 L244,162.2 L314.3,2 L382.8,162.2 L364,162.2 L346.2,119.1 Z M339.5,103 L313.8,41.8 L287.7,103 L339.5,103 Z M459.9,0 C470.8,0 487,0.7 499,8.9 C508.4,15.2 516.6,27.5 516.6,44.7 C516.6,69.3 500.4,87.5 476,89.2 L527.2,161.2 L505.5,161.2 L456.5,90.6 L451.9,90.6 L451.9,161.2 L434,161.2 L434,0 L459.9,0 Z M451.9,74.7 L463.3,74.7 C485.5,74.7 498.8,64.1 498.8,45.2 C498.8,36.3 496.1,27.3 486,21.5 C478.8,17.4 470.5,16.9 462.8,16.9 L451.9,16.9 L451.9,74.7 Z"/>
    <polygon points="591.3 69.1 659.9 0 684.1 0 608.7 75.1 686.5 161.1 661.9 161.1 595.9 87.2 591.3 91.8 591.3 161.1 573.4 161.1 573.4 0 591.3 0"/>
    <polygon points="812.4 16.9 746.7 16.9 746.7 64.7 810.5 64.7 810.5 81.6 746.7 81.6 746.7 144.2 812.4 144.2 812.4 161.1 728.8 161.1 728.8 0 812.4 0"/>
    <polygon points="902.9 16.9 902.9 161.1 885 161.1 885 16.9 845.9 16.9 845.9 0 942.1 0 942.1 16.9"/>
    <polygon points="1029 16.9 1029 161.1 1011.1 161.1 1011.1 16.9 972 16.9 972 0 1068.2 0 1068.2 16.9"/>
    <polygon points="1128.3 0 1128.3 161.2 1110.4 161.2 1110.4 0"/>
    <g transform="translate(0 1)">
      <polygon points="64.3 1.5 62.3 1 60.7 .6 60.4 1.5 60.4 1.5 60.4 1.5 53.5 27.3 51.5 34.5 17.7 160.2 21.3 161.2 53.5 41.7 55.4 34.5 62.3 8.7"/>
      <polygon points="46.5 1.5 44.6 8.7 3.6 161.2 0 160.2 42.7 1.5 42.9 .6 44.6 1"/>
      <polygon points="206.4 161.2 210 160.2 167.4 1.5 165.4 1 165.4 1 163.8 .6 163.5 1.5 163.5 1.5 156.6 27.3 154.6 34.5 147.7 60.3 145.8 67.5 122.8 153 115.8 127.2 138.8 41.7 140.8 34.5 147.7 8.7 149.6 1.5 147.7 1 147.7 1 146 .6 145.8 1.5 145.8 1.5 138.8 27.3 136.9 34.5 113.9 120 107 94.2 130 8.7 131.9 1.5 130 1 130 1 128.3 .6 128 1.5 128 1.5 105 87.1 82 1.5 80.1 1 80.1 1 78.4 .6 78.1 1.5 78.1 1.5 71.2 27.3 69.3 34.5 62.3 60.3 60.4 67.5 35.5 160.2 39.1 161.2 62.3 74.7 85.4 160.2 85.4 160.2 85.6 161.2 87.3 160.7 89.2 160.2 89.2 160.2 87.3 153 64.3 67.5 71.2 41.7 94.2 127.2 96.2 134.4 103.1 160.2 103.1 160.2 103.4 161.2 105 160.7 106.9 160.2 107 160.2 105 153 98.1 127.2 96.2 120 73.1 34.5 80.1 8.7 103.1 94.2 105 101.4 112 127.2 113.9 134.4 120.8 160.2 120.8 160.2 122.8 160.7 124.7 160.2 124.7 160.2 147.7 74.7 171 161.2 174.6 160.2 149.6 67.5 156.6 41.7 188.7 161.2 192.3 160.2 158.5 34.5 165.4 8.7"/>
    </g>
  </g>
</svg>
